<svg width="2530" height="1024" viewBox="0 0 2530 1024" fill="none" xmlns="http://www.w3.org/2000/svg">
<rect width="1440" height="1024" fill="white"/>
<path fill-rule="evenodd" clip-rule="evenodd" d="M217.407 0L444.908 146.702L391.202 0H217.407Z" fill="#5A9CFF" fill-opacity="0.38"/>
<path fill-rule="evenodd" clip-rule="evenodd" d="M62.451 0L0 170.591V214.22L332.206 0H62.451ZM404.794 0L757.908 227.702L674.549 0H404.794Z" fill="#5A9CFF" fill-opacity="0.38"/>
<path fill-rule="evenodd" clip-rule="evenodd" d="M238.798 0L185.092 146.702L412.593 0H238.798ZM736.407 0L963.908 146.702L910.202 0H736.407Z" fill="#5A9CFF" fill-opacity="0.38"/>
<path fill-rule="evenodd" clip-rule="evenodd" d="M44.9077 146.702L0 117.744V24.0326L44.9077 146.702Z" fill="#5A9CFF" fill-opacity="0.38"/>
<path fill-rule="evenodd" clip-rule="evenodd" d="M0 0V416.01L118.5 339.596L507.908 590.702L359.167 184.404L645.135 0H0Z" fill="#5A9CFF" fill-opacity="0.38"/>
<path fill-rule="evenodd" clip-rule="evenodd" d="M1440 913.298H1269.43L1440 1023.29V913.298ZM2503 930.435L2529.57 913.298H2503V930.435Z" fill="#5A9CFF" fill-opacity="0.38"/>
<path fill-rule="evenodd" clip-rule="evenodd" d="M980.5 507L1129.24 913.298H1440V1023.29L1438.9 1024H522.098L350.425 913.298H831.759L980.5 507Z" fill="#5A9CFF" fill-opacity="0.38"/>
<path fill-rule="evenodd" clip-rule="evenodd" d="M1440 994.298H1063.43L1107.94 1023H1440V994.298Z" fill="#5A9CFF" fill-opacity="0.38"/>
<path fill-rule="evenodd" clip-rule="evenodd" d="M1440 228.561L1294.76 625.298H813.425L1202.83 876.404L1148.8 1024H1440V228.561Z" fill="#5A9CFF" fill-opacity="0.38"/>
<path fill-rule="evenodd" clip-rule="evenodd" d="M1440 669.53L1380.5 507L1231.76 913.298H750.425L922.098 1024H1440V669.53Z" fill="#5A9CFF" fill-opacity="0.38"/>
</svg>
