<svg width="1440" height="1024" viewBox="0 0 1440 1024" fill="none" xmlns="http://www.w3.org/2000/svg">
<path fill-rule="evenodd" clip-rule="evenodd" d="M0 0V91.3269L254.908 255.702L161.299 0H0Z" fill="#5AEBFF" fill-opacity="0.38"/>
<path fill-rule="evenodd" clip-rule="evenodd" d="M0 0V200.7L178.5 85.596L567.908 336.702L444.645 0H0Z" fill="#5AEBFF" fill-opacity="0.38"/>
<path fill-rule="evenodd" clip-rule="evenodd" d="M0 0V494.702L317.908 699.702L169.167 293.404L558.575 42.298H77.2405L61.7558 0H0ZM-460.908 699.702L-450.034 670H-414.847L-460.908 699.702Z" fill="#5AEBFF" fill-opacity="0.38"/>
<path fill-rule="evenodd" clip-rule="evenodd" d="M0 252.537L384.5 4.59601L773.908 255.702L680.299 0H88.7015L0 242.296V252.537Z" fill="#5AEBFF" fill-opacity="0.38"/>
<path fill-rule="evenodd" clip-rule="evenodd" d="M0 0V105.094L228.908 252.703L136.396 0H0Z" fill="#5A9CFF" fill-opacity="0.38"/>
<path fill-rule="evenodd" clip-rule="evenodd" d="M0 0V180.934L152.5 82.596L541.908 333.702L419.744 0H0Z" fill="#5A9CFF" fill-opacity="0.38"/>
<path fill-rule="evenodd" clip-rule="evenodd" d="M0 0V508.468L291.908 696.702L143.167 290.404L532.575 39.2982H51.2405L36.854 0H0Z" fill="#5A9CFF" fill-opacity="0.38"/>
<path fill-rule="evenodd" clip-rule="evenodd" d="M61.6032 0L0 168.275V232.771L358.5 1.59601L747.908 252.702L655.397 0H61.6032Z" fill="#5A9CFF" fill-opacity="0.38"/>
<path fill-rule="evenodd" clip-rule="evenodd" d="M0 0V143.139L169.908 252.703L77.3965 0H0Z" fill="#FF5A5A" fill-opacity="0.38"/>
<path fill-rule="evenodd" clip-rule="evenodd" d="M0 0V142.889L93.5 82.596L482.908 333.702L360.744 0H0Z" fill="#FF5A5A" fill-opacity="0.38"/>
<path fill-rule="evenodd" clip-rule="evenodd" d="M0 546.513L232.908 696.702L84.1672 290.404L473.575 39.2979H0V546.513Z" fill="#FF5A5A" fill-opacity="0.38"/>
<path fill-rule="evenodd" clip-rule="evenodd" d="M2.60325 0L0 7.11102V194.726L299.5 1.59601L688.908 252.702L596.397 0H2.60325Z" fill="#FF5A5A" fill-opacity="0.38"/>
<path fill-rule="evenodd" clip-rule="evenodd" d="M1354.57 1024L1249.5 737L1144.43 1024H1354.57Z" fill="#5AEBFF" fill-opacity="0.38"/>
<path fill-rule="evenodd" clip-rule="evenodd" d="M1440 797.278L1312.5 449L1163.76 855.298H682.425L944.043 1024H1440V797.278Z" fill="#5AEBFF" fill-opacity="0.38"/>
<path fill-rule="evenodd" clip-rule="evenodd" d="M954.567 1024L849.5 737L744.433 1024H954.567Z" fill="#5AEBFF" fill-opacity="0.38"/>
<path fill-rule="evenodd" clip-rule="evenodd" d="M1329.67 1024L1223.5 734L1117.33 1024H1329.67Z" fill="#5A9CFF" fill-opacity="0.38"/>
<path fill-rule="evenodd" clip-rule="evenodd" d="M1286.5 446L1435.24 852.298H1440V1024H922.695L656.425 852.298H1137.76L1286.5 446Z" fill="#5A9CFF" fill-opacity="0.38"/>
<path fill-rule="evenodd" clip-rule="evenodd" d="M929.665 1024L823.5 734L717.334 1024H929.665Z" fill="#5A9CFF" fill-opacity="0.38"/>
<path fill-rule="evenodd" clip-rule="evenodd" d="M1296.67 1024L1190.5 734L1084.33 1024H1296.67Z" fill="#FF5A5A" fill-opacity="0.38"/>
<path fill-rule="evenodd" clip-rule="evenodd" d="M1440 852.298H1402.24L1253.5 446L1104.76 852.298H623.425L889.695 1024H1440V852.298Z" fill="#FF5A5A" fill-opacity="0.38"/>
<path fill-rule="evenodd" clip-rule="evenodd" d="M790.5 734L896.665 1024H684.334L790.5 734Z" fill="#FF5A5A" fill-opacity="0.38"/>
</svg>
