<svg width="60" height="60" viewBox="0 0 60 60" fill="none" xmlns="http://www.w3.org/2000/svg">
<circle cx="30" cy="30" r="29" fill="white" stroke="black" stroke-width="2"/>
<path d="M10.915 37.2656H15.5293V21.4575H10.915V18.7231H22.0234L30.0386 32.9077L37.4897 18.7231H48.5981V21.4575H44.0181V37.2656H48.5981V40H36.208V37.2656H40.1387V21.3037L30.9614 38.7866H28.8936L19.4087 21.8506V37.2656H23.3052V40H10.915V37.2656ZM45.2144 22.6538H49.8286V19.5776H50.5122V23.3032H45.8979V36.2402H45.2144V22.6538ZM23.9546 19.5947H24.7065L30.6709 30.0537L30.2778 30.7715L23.9546 19.5947ZM11.9404 22.6538H14.8115V23.3032H11.9404V22.6538ZM31.7646 40L39.3184 25.5762V26.9946L32.209 40.6494H30.4487L30.0898 40H31.7646ZM20.605 25.7812L21.2886 26.9946V36.2402H20.605V25.7812ZM49.8286 41.1963V38.2227H50.5122V41.8457H37.2334V41.1963H49.8286ZM24.5356 41.1963V38.2227H25.2192V41.8457H11.9404V41.1963H24.5356Z" fill="black"/>
</svg>
